<?xml version="1.0" encoding="utf-8"?>
<!-- Generator: Adobe Illustrator 25.4.1, SVG Export Plug-In . SVG Version: 6.00 Build 0)  -->
<svg version="1.1" id="Layer_1" xmlns="http://www.w3.org/2000/svg" xmlns:xlink="http://www.w3.org/1999/xlink" x="0px" y="0px"
	 viewBox="0 0 1077 1080" style="enable-background:new 0 0 1077 1080;" xml:space="preserve">
<style type="text/css">
	.st0{fill:#9A2BC2;}
	.st1{fill:#CF9BE2;}
	.st2{fill:#FFFFFF;}
	.st3{fill:#AD52CD;}
	.st4{fill:#B15CD0;}
	.st5{fill:#DCB6EA;}
	.st6{fill:#C485DC;}
	.st7{fill:#DBB4E9;}
	.st8{fill:#C280DA;}
</style>
<rect x="-1.5" class="st0" width="1080" height="1080"/>
<path class="st1" d="M0.4,0C0.3,2.6,0.1,5.1,0.1,7.7c0,112.3,0,224.5,0,336.8c0,242.5,0,484.9,0,727.4c0,2.7,0.2,5.4,0.3,8.1
	c-1.9,0-1.9,0-1.9-1.4c0-1,0-1.9,0-2.9c0-357.1,0-714.2,0-1071.4c0-1,0-1.9,0-2.9C-1.5,0-1.5,0,0.4,0z"/>
<path class="st2" d="M414.7,356.1c-6.2,5.1-12.3,10.1-18.5,15.2c-10.4,8.7-20.9,17.4-31.3,26.2c-2.3,2-4.6,2.9-7.7,2.9
	c-48.3-0.1-96.5-0.1-144.8,0c-27.6,0.1-54.4-19.8-59.2-51.2c-0.5-3.3-0.6-6.7-0.6-10c0-37.4,0-74.9,0-112.3c0-1.1,0-2.2,0.1-3.4
	c0.1-0.9,0.5-1.5,1.5-1.6c0.5,0,1-0.1,1.4-0.1c1.4,0,2.9,0,4.3,0c161.9,0,323.8,0,485.7,0c1.8,0,3.5,0,5.3,0c1.4,0.1,1.9,0.6,2,2.1
	c0.1,1.1,0.1,2.2,0.1,3.4c0,56.1,0,112.3,0.1,168.4c0,3.5-1,6-3.1,8.7c-65.9,83.5-131.7,167-197.6,250.4
	c-5.8,7.4-12.2,14.3-18.5,21.4c-12.7,14.6-25.5,29.1-38.3,43.6c-1.1,1.2-2,2.5-3,3.7c-0.3,2.5-2.5,3.7-4,5.4
	c-0.4,0.4-0.8,0.7-1.2,0.9c0.1-0.1,0,0,0.1,0c0.5-0.3,0.9-0.6,1.2-1c1.7-1.4,2.8-3.6,5.3-3.8c3.1-2.5,6.2-5,9.3-7.5
	c15.4-12.8,30.7-25.6,46-38.5c2.4-2,4.7-2.8,7.8-2.8c45.1,0.1,90.2,0,135.2,0.1c19.4,0,35.4,7.6,47.6,22.7
	c8.2,10.1,12.5,21.8,12.9,34.9c0.1,2.1,0.1,4.2,0.1,6.2c0,36,0,72,0,108c0,7.6,0.8,6.8-6.5,6.8c-162.4,0-324.8,0-487.2,0
	c-7.2,0-6.5,0.7-6.5-6.3c0-52.8,0-105.6,0-158.4c0-0.5,0.1-1,0-1.4c-0.4-2.9,0.8-5.1,2.6-7.4c22.5-28.7,44.9-57.4,67.4-86.2
	c39.6-50.7,79.1-101.3,118.7-152c6.1-7.8,12.8-15.1,19.4-22.6c17.3-19.7,34.6-39.4,51.9-59.1c1.2-1.3,2.2-2.7,3.3-4.1
	c0.2-1.8,1.4-2.8,2.7-3.7c-0.1,0.1,0.2-0.1,0.1-0.1s0,0-0.1,0.1c-0.1,0.1-0.1,0.1-0.2,0.2C417.2,354.7,416.2,355.7,414.7,356.1z"/>
<path class="st2" d="M916.4,423c-0.8,24.6-1.7,49.2-2.5,73.8c-0.4,10.4-0.7,20.8-1,31.2c-0.5,14.7-0.9,29.4-1.3,44.1
	c-0.5,16.1-1.1,32.3-1.7,48.4c0,0.8-0.1,1.6-0.2,2.4c-0.1,0.7-0.6,1.1-1.3,1.2c-1.6,0.1-3.2,0.1-4.8,0.1c-42.7,0-85.3,0-128,0
	c-20.3,0-40.6,0-60.9,0c-1.3,0-2.6,0-3.8,0c-2.9-0.1-3.2-0.3-3.3-3.4c-0.3-8.5-0.6-16.9-0.9-25.4c-0.4-14.2-0.8-28.5-1.3-42.7
	c-0.8-24.3-1.6-48.6-2.5-72.9c-0.4-10.7-0.7-21.4-1.1-32.1c-0.5-14.9-0.9-29.7-1.3-44.6c-0.8-23.3-1.6-46.7-2.4-70
	c-0.3-10.1-0.7-20.1-1-30.2c-0.8-25.3-1.6-50.5-2.4-75.8c-0.2-5.9-0.4-5.4,5.3-5.4c72.6,0,145.1,0,217.7,0c5.8,0,5.4-0.3,5.2,5.6
	c-0.6,18.5-1.2,37.1-1.8,55.6c-1,29.9-1.9,59.8-2.9,89.7C917.6,389.5,916.9,406.2,916.4,423C916.4,423,916.4,423,916.4,423z"/>
<path class="st2" d="M808.1,854.9c-33.6,0-67.1,0-100.7,0c-7,0-6.4,0.5-6.4-6.6c0-39,0-78.1,0-117.1c0-7.7,0.6-15.4,3.3-22.7
	c8.3-22.5,24.3-35.8,47.8-40.1c3.4-0.6,7-0.6,10.5-0.6c49.4,0,98.8,0,148.1,0c0.5,0,1,0,1.4,0c4.2,0.1,4.2,0.1,4.2,4.3
	c0,13,0,25.9,0,38.9c0,45.7,0,91.5,0,137.2c0,1.6,0,3.2-0.1,4.8c0,1.2-0.8,1.7-1.8,1.8c-1.6,0.1-3.2,0.1-4.8,0.1
	C875.8,854.9,842,854.9,808.1,854.9z"/>
<path class="st3" d="M394,725c-1.3,1.9-3.3,3.1-5.1,4.6c-1,0.3-1.2-0.1-1-1c1.5-1.7,2.7-3.7,4.7-5C393,724.1,393.5,724.5,394,725z"
	/>
<path class="st4" d="M419.7,353.4c-1.1,1.5-2.1,3-3.7,4c-0.4-0.4-0.8-0.8-1.2-1.2c1.2-1.8,3.1-3,4.8-4.2
	C420,352.4,420,352.9,419.7,353.4z"/>
<path class="st5" d="M386.1,732.1c-0.3,0.3-0.6,0.7-0.9,1c-0.3,0.3-0.8,0.5-1.2,0.1c-0.1-0.1-0.1-0.6,0.1-0.8
	c0.6-0.7,1.2-1.3,1.9-1.9C386.5,731,386.5,731.5,386.1,732.1z"/>
<path class="st6" d="M386.1,732.1c0-0.5-0.1-1.1-0.1-1.6c0.7-0.6,1.3-1.3,2-1.9c0.3,0.3,0.7,0.7,1,1
	C387.9,730.4,387,731.2,386.1,732.1z"/>
<path class="st7" d="M421.5,350.2c0.2-0.5,0.6-0.9,1-0.7c0.9,0.5,0.1,1-0.2,1.4c-0.2,0.2-0.5,0.4-0.7,0.6
	C421,351.1,421,350.6,421.5,350.2z"/>
<path class="st8" d="M421.5,350.2c0,0.4,0.1,0.9,0.1,1.3c-0.6,0.6-1.3,1.3-1.9,1.9c0-0.5-0.1-1-0.1-1.5
	C420.2,351.3,420.8,350.7,421.5,350.2z"/>
</svg>
